<?xml version="1.0" standalone="no"?>
<!DOCTYPE svg PUBLIC "-//W3C//DTD SVG 20010904//EN"
 "http://www.w3.org/TR/2001/REC-SVG-20010904/DTD/svg10.dtd">
<svg version="1.0" xmlns="http://www.w3.org/2000/svg"
 width="722.000000pt" height="635.000000pt" viewBox="0 0 722.000000 635.000000"
 preserveAspectRatio="xMidYMid meet">

<g transform="translate(0.000000,635.000000) scale(0.100000,-0.100000)"
fill="#000000" stroke="none">
<path d="M3500 6018 c-57 -90 -149 -235 -205 -323 -56 -88 -161 -254 -234
-370 -322 -507 -517 -815 -556 -875 -23 -36 -86 -135 -140 -220 -54 -85 -127
-200 -162 -255 -36 -55 -154 -242 -264 -415 -110 -173 -217 -342 -238 -375
-109 -171 -477 -751 -615 -970 -87 -137 -173 -274 -192 -302 -19 -29 -34 -55
-34 -58 0 -3 326 -5 725 -5 l725 0 50 76 c27 41 50 79 50 84 0 5 4 10 8 12 5
2 33 44 62 93 30 50 64 102 76 117 12 15 33 48 45 73 12 25 26 45 31 45 4 0 8
7 8 15 0 8 5 15 10 15 6 0 10 7 10 15 0 8 4 15 9 15 5 0 13 13 19 28 5 16 16
35 23 43 8 8 23 30 33 49 11 19 39 61 63 93 23 33 43 63 43 69 0 5 22 42 49
81 26 40 74 115 107 167 32 52 62 97 66 98 4 2 8 8 8 13 0 11 68 117 89 138 7
8 18 27 23 43 6 15 14 28 19 28 5 0 9 4 9 10 0 11 89 152 100 160 9 5 110 167
110 174 0 5 122 198 130 206 3 3 11 17 19 33 8 15 19 26 25 24 6 -2 188 -288
406 -635 217 -348 501 -801 630 -1007 l235 -375 727 0 c479 0 728 3 728 10 0
6 -5 10 -10 10 -6 0 -14 8 -17 18 -4 9 -17 31 -30 48 -13 17 -23 36 -23 42 0
7 -4 12 -8 12 -5 0 -19 21 -32 47 -13 27 -32 59 -42 73 -24 31 -118 179 -118
185 0 2 -27 44 -60 93 -33 48 -60 94 -60 100 0 7 -4 12 -8 12 -5 0 -17 18 -28
40 -10 22 -22 40 -25 40 -4 0 -10 11 -13 25 -4 14 -11 25 -16 25 -6 0 -10 7
-10 15 0 8 -4 15 -9 15 -5 0 -14 13 -21 30 -7 16 -23 42 -36 57 -12 15 -21 30
-19 33 2 4 -3 16 -13 26 -15 17 -70 98 -97 145 -5 10 -39 64 -75 121 -36 56
-67 107 -69 113 -2 5 -7 12 -11 15 -7 5 -80 118 -80 124 0 2 -22 36 -48 77
-27 41 -57 90 -68 109 -10 19 -22 37 -25 40 -3 3 -41 64 -84 135 -42 72 -87
144 -99 160 -12 17 -35 53 -51 80 -15 28 -31 52 -35 55 -4 3 -10 15 -14 28 -4
12 -12 22 -17 22 -5 0 -9 7 -9 15 0 8 -4 15 -8 15 -5 0 -22 24 -37 53 -16 28
-35 58 -42 65 -7 7 -13 17 -13 22 0 4 -31 55 -70 113 -38 58 -70 110 -70 116
0 6 -4 11 -10 11 -5 0 -10 6 -10 14 0 8 -11 28 -25 44 -14 17 -25 33 -25 37 0
3 -11 21 -25 39 -14 18 -25 37 -25 42 0 5 -17 32 -37 60 -21 27 -45 63 -53 79
-8 17 -17 32 -20 35 -13 13 -60 91 -60 100 0 5 -4 10 -10 10 -5 0 -12 11 -16
25 -3 14 -10 25 -15 25 -5 0 -9 7 -9 15 0 8 -3 15 -8 15 -4 0 -13 13 -20 29
-7 16 -22 39 -32 51 -11 13 -20 28 -20 34 0 6 -11 24 -25 40 -14 16 -25 34
-25 41 0 6 -8 20 -18 31 -11 11 -21 24 -23 29 -2 6 -29 48 -59 95 -30 47 -54
88 -53 92 2 5 -2 8 -7 8 -6 0 -10 5 -10 10 0 6 -5 16 -10 23 -30 35 -117 176
-112 181 3 3 0 6 -6 6 -7 0 -12 5 -12 11 0 6 -11 25 -25 43 -14 18 -25 38 -25
44 0 6 -3 12 -8 14 -11 5 -92 133 -92 146 0 7 -4 12 -10 12 -5 0 -10 7 -10 15
0 8 -4 15 -8 15 -5 0 -14 10 -20 23 -7 12 -24 42 -40 67 -15 25 -36 60 -47 78
-11 19 -25 40 -30 48 -8 12 -33 -20 -115 -148z"/>
<path d="M3606 3483 c-3 -3 -6 -64 -6 -135 l0 -129 -157 -247 c-86 -136 -177
-281 -203 -322 -102 -163 -221 -351 -301 -476 l-84 -132 -132 -88 c-73 -49
-133 -92 -133 -96 0 -5 455 -8 1010 -8 556 0 1010 4 1010 8 0 5 -13 28 -30 50
-16 23 -30 44 -30 47 0 10 -83 140 -91 143 -5 2 -9 9 -9 15 0 6 -31 60 -69
121 -37 61 -155 253 -261 426 -106 173 -247 403 -313 510 -67 107 -137 223
-157 257 -21 35 -40 60 -44 56z"/>
<path d="M805 1646 c-61 -19 -130 -53 -144 -70 -7 -9 -10 -23 -7 -32 5 -13 10
-10 30 13 31 37 84 53 173 53 129 0 199 -60 189 -163 -8 -80 -94 -177 -156
-177 -23 0 -24 8 -8 47 6 15 12 33 14 38 1 6 11 35 22 65 11 30 22 73 25 95
l6 40 -19 -25 c-11 -14 -41 -81 -67 -149 -35 -88 -54 -126 -70 -133 -17 -8
-19 -14 -11 -27 7 -12 4 -31 -11 -69 -29 -73 -28 -83 7 -70 23 9 31 22 46 75
21 70 25 74 119 105 34 11 75 32 91 46 35 33 76 116 76 156 0 142 -150 231
-305 182z"/>
<path d="M5105 1617 c-73 -25 -150 -61 -159 -75 -2 -4 26 2 65 15 88 30 235
39 284 18 60 -25 42 -82 -40 -131 -25 -14 -42 -30 -39 -35 3 -5 27 -9 53 -9
57 0 76 -17 73 -63 -1 -22 -12 -41 -33 -59 -29 -25 -30 -26 -8 -21 35 9 109
86 109 115 0 29 -44 58 -89 58 -37 0 -42 23 -9 41 24 13 70 64 80 89 4 10 -2
28 -16 45 -22 27 -28 29 -112 32 -73 3 -102 -1 -159 -20z"/>
<path d="M4570 1605 l-24 -13 31 -16 c36 -18 71 -62 83 -105 7 -27 5 -31 -43
-62 -69 -45 -84 -61 -98 -108 -26 -87 30 -119 107 -62 49 35 68 58 82 96 34
94 20 174 -39 234 -46 45 -67 53 -99 36z m108 -246 c-6 -64 -34 -103 -76 -107
-28 -3 -32 0 -32 20 0 44 63 138 94 138 16 0 18 -6 14 -51z"/>
<path d="M1787 1603 c-16 -4 -107 -174 -107 -200 0 -13 -20 -30 -40 -35 -35
-8 -57 -58 -25 -58 19 0 19 -6 -6 -103 -21 -83 -21 -159 -1 -179 6 -6 21 -8
34 -5 32 8 131 110 159 162 31 59 22 87 -42 121 -42 23 -47 29 -32 35 10 4 30
8 44 8 14 1 34 11 45 22 l19 21 -52 -7 c-45 -6 -53 -4 -53 9 0 22 44 104 75
140 26 30 34 77 13 75 -7 -1 -21 -3 -31 -6z m-64 -324 c30 -13 47 -48 47 -93
0 -24 -10 -44 -38 -74 -45 -48 -65 -52 -88 -17 -16 24 -16 30 1 93 28 106 33
112 78 91z"/>
<path d="M3670 1548 c-20 -8 -29 -22 -37 -57 -6 -26 -20 -67 -32 -92 -29 -63
-51 -128 -51 -153 0 -12 9 -27 21 -34 35 -22 87 -1 128 50 12 16 11 16 -18 2
-73 -37 -85 12 -31 131 77 170 78 176 20 153z"/>
<path d="M5203 1532 c-12 -9 -49 -73 -82 -142 -55 -115 -58 -126 -44 -142 23
-26 73 -32 139 -16 l59 13 -55 3 c-69 4 -94 24 -87 69 3 18 15 43 27 55 19 21
57 94 80 153 12 30 -4 33 -37 7z"/>
<path d="M2608 1504 c-30 -16 -38 -44 -12 -44 27 0 54 20 54 40 0 24 -6 24
-42 4z"/>
<path d="M5807 1499 c-9 -6 -28 -32 -42 -58 -13 -27 -37 -59 -52 -71 -15 -12
-22 -19 -15 -15 15 8 16 -16 0 -66 -10 -36 -9 -41 12 -64 28 -30 39 -31 90 -5
51 26 51 37 0 32 -40 -4 -40 -4 -40 31 0 50 9 67 35 67 12 0 29 7 36 16 11 14
11 18 -4 29 -22 16 -21 33 3 70 11 17 20 33 20 38 0 10 -22 8 -43 -4z"/>
<path d="M6019 1503 c-9 -2 -31 -30 -47 -61 -17 -31 -41 -63 -53 -71 -16 -9
-19 -15 -9 -21 10 -6 10 -15 0 -44 -14 -44 -7 -82 19 -95 23 -13 82 2 104 27
15 16 13 17 -26 17 -32 0 -42 4 -45 18 -6 32 18 77 42 77 12 0 29 9 38 19 15
18 15 19 -3 24 -23 6 -25 36 -4 63 15 20 20 55 8 53 -5 -1 -15 -3 -24 -6z"/>
<path d="M1269 1438 c-7 -13 -16 -42 -19 -66 l-7 -43 36 3 35 3 -1 53 c-1 28
-1 57 -2 62 -2 19 -30 10 -42 -12z"/>
<path d="M6493 1447 c-19 -8 -23 -18 -23 -52 0 -29 -7 -50 -23 -69 l-24 -27 5
56 5 57 -34 -7 c-19 -4 -37 -9 -41 -12 -14 -8 -8 -23 8 -23 14 0 16 -9 12 -50
-3 -28 -13 -59 -23 -69 -19 -22 -13 -41 14 -41 22 0 42 22 70 78 19 36 26 42
54 42 l33 0 -1 59 c0 33 -2 61 -5 64 -3 2 -15 0 -27 -6z"/>
<path d="M1488 1437 c-7 -6 -29 -23 -49 -36 -63 -43 -110 -133 -88 -172 33
-63 160 0 194 97 15 44 11 81 -12 106 -19 21 -27 22 -45 5z m-2 -66 c-3 -4 3
-16 14 -26 11 -10 20 -23 20 -29 0 -21 -61 -86 -80 -86 -28 0 -32 15 -20 62
15 54 36 88 56 88 8 0 13 -4 10 -9z"/>
<path d="M1962 1414 c-75 -64 -109 -159 -68 -193 24 -20 99 -23 139 -5 42 19
44 30 3 14 -35 -13 -76 -3 -76 19 0 9 13 25 29 35 40 27 62 68 64 119 2 38 0
42 -23 45 -17 2 -39 -9 -68 -34z m65 -40 c-7 -39 -67 -108 -75 -85 -14 42 28
121 64 121 13 0 15 -7 11 -36z"/>
<path d="M2819 1432 c-9 -9 -28 -25 -42 -36 -35 -25 -87 -107 -87 -137 2 -122
188 -36 206 95 11 75 -35 121 -77 78z m26 -78 c29 -45 -10 -124 -62 -124 -19
0 -23 5 -23 32 0 39 37 118 55 118 7 0 20 -12 30 -26z"/>
<path d="M3410 1434 c-83 -36 -160 -109 -185 -175 -18 -49 53 -49 126 1 24 16
44 28 45 27 1 -1 3 -15 5 -32 4 -38 16 -55 40 -55 14 0 19 7 19 25 0 13 9 63
20 111 11 48 17 91 13 95 -18 16 -50 17 -83 3z m40 -29 c0 -38 -102 -155 -135
-155 -42 0 4 94 68 141 44 32 67 37 67 14z"/>
<path d="M4063 1425 c-85 -41 -184 -168 -154 -198 15 -15 73 0 124 33 l47 30
0 -26 c0 -36 18 -64 40 -64 16 0 20 7 20 33 0 17 9 68 19 112 11 44 17 83 13
87 -19 18 -61 16 -109 -7z m67 -21 c0 -25 -34 -75 -80 -116 -46 -42 -70 -48
-70 -17 0 33 18 61 68 106 49 44 82 55 82 27z"/>
<path d="M5560 1432 c-85 -58 -139 -176 -96 -212 21 -17 132 -18 148 -2 11 11
8 12 -14 7 -29 -7 -68 9 -68 29 0 7 12 19 26 26 33 18 59 55 72 101 17 63 -15
87 -68 51z m46 -44 c-3 -13 -5 -28 -5 -33 -1 -15 -58 -75 -70 -75 -17 0 -13
41 9 88 15 33 24 42 44 42 21 0 25 -4 22 -22z"/>
<path d="M6214 1431 c-72 -44 -128 -147 -106 -195 8 -18 21 -25 60 -30 27 -3
61 -2 76 4 33 12 34 22 2 14 -13 -3 -34 -1 -45 6 -23 12 -29 40 -8 40 41 0
107 123 87 161 -13 24 -27 24 -66 0z m46 -43 c0 -44 -68 -125 -84 -100 -7 12
8 73 25 100 19 30 59 30 59 0z"/>
<path d="M2192 1410 c-48 -34 -50 -45 -22 -100 22 -44 26 -90 8 -90 -6 0 -22
9 -34 21 -19 18 -25 19 -43 7 -26 -16 -23 -29 10 -45 34 -17 92 0 119 34 25
32 25 49 0 96 -27 51 -26 69 4 61 24 -6 43 17 30 37 -9 16 -30 10 -72 -21z"/>
<path d="M2415 1429 c-29 -16 -65 -56 -65 -71 0 -7 9 -28 20 -46 23 -37 27
-92 7 -92 -8 0 -22 9 -32 20 -23 25 -32 25 -45 -1 -17 -31 1 -45 54 -41 85 7
120 71 76 137 -11 17 -20 38 -20 48 0 16 5 17 31 12 28 -6 30 -5 27 16 -3 27
-24 34 -53 18z"/>
<path d="M3020 1422 c-23 -19 -84 -199 -70 -207 17 -11 39 8 91 80 73 100 100
98 64 -5 -16 -45 -12 -80 9 -80 26 0 44 27 50 75 20 151 20 145 0 145 -20 -1
-59 -33 -111 -93 -18 -21 -33 -36 -33 -35 1 15 32 104 40 113 17 21 -16 26
-40 7z"/>
<path d="M4359 1370 l-68 -70 19 56 c11 32 20 61 20 66 0 15 -39 8 -49 -10
-16 -30 -49 -135 -53 -167 -2 -25 0 -30 17 -28 11 1 25 9 30 18 82 135 157
184 110 72 -29 -70 -13 -113 34 -87 16 8 20 17 15 34 -3 12 2 51 11 85 11 45
13 66 5 81 -6 11 -13 20 -17 20 -3 0 -36 -32 -74 -70z"/>
<path d="M2599 1418 c-19 -6 -32 -22 -44 -56 -10 -26 -21 -51 -25 -57 -15 -21
-20 -65 -9 -83 11 -17 16 -18 51 -8 21 7 47 22 58 34 11 12 15 17 8 12 -7 -6
-22 -10 -35 -10 -31 0 -30 33 3 111 14 34 24 62 22 64 -2 1 -15 -2 -29 -7z"/>
<path d="M1171 1401 c-25 -7 -42 -31 -22 -31 21 0 13 -92 -10 -116 -19 -20
-19 -23 -4 -38 15 -15 18 -15 40 2 25 18 71 102 56 102 -5 0 -12 -6 -14 -12
-3 -7 -6 13 -6 45 -1 31 -4 57 -8 56 -5 -1 -19 -4 -32 -8z"/>
<path d="M5340 823 c-98 -50 -136 -307 -69 -462 49 -115 172 -135 263 -42 l37
38 -3 114 -3 114 -75 0 -75 0 -3 -52 -4 -52 39 -3 c36 -3 38 -5 35 -33 -7 -66
-86 -86 -126 -32 -18 25 -21 42 -21 137 0 95 3 112 21 137 14 18 32 29 52 31
26 3 33 -2 47 -28 12 -23 21 -30 33 -25 9 3 29 9 45 12 15 3 27 9 27 12 0 26
-35 102 -55 121 -34 32 -116 38 -165 13z"/>
<path d="M120 550 l0 -280 50 0 50 0 0 105 0 105 40 0 c92 0 133 55 134 180 0
86 -20 141 -60 159 -14 6 -67 11 -119 11 l-95 0 0 -280z m168 158 c17 -17 15
-84 -4 -102 -8 -9 -26 -16 -40 -16 -23 0 -24 3 -24 65 0 65 0 65 28 65 15 0
33 -5 40 -12z"/>
<path d="M440 765 l0 -65 50 0 50 0 0 -215 0 -215 45 0 45 0 2 213 3 212 53 3
52 3 0 65 0 64 -150 0 -150 0 0 -65z"/>
<path d="M1345 808 c-22 -94 -115 -520 -115 -528 0 -7 18 -10 47 -8 39 2 48 7
51 23 10 68 8 66 75 63 l61 -3 9 -43 8 -42 51 0 c36 0 49 4 45 13 -2 6 -31
132 -63 280 l-58 267 -53 0 c-46 0 -53 -3 -58 -22z m90 -285 l6 -43 -40 0
c-23 0 -41 1 -41 3 0 12 23 129 32 162 l11 40 13 -60 c7 -33 15 -79 19 -102z"/>
<path d="M1620 550 l0 -280 50 0 50 0 0 115 c0 91 3 115 14 115 22 0 32 -19
66 -127 l33 -103 55 0 c44 0 53 3 48 15 -3 8 -17 53 -31 99 -14 46 -35 96 -46
110 l-21 27 25 19 c39 31 50 71 45 157 -5 70 -8 79 -37 105 -30 27 -35 28
-141 28 l-110 0 0 -280z m190 151 c25 -48 -6 -101 -60 -101 l-30 0 0 60 0 60
40 0 c29 0 42 -5 50 -19z"/>
<path d="M1980 550 l0 -280 40 0 40 0 0 207 c0 113 2 204 4 202 2 -2 16 -80
30 -174 14 -93 28 -185 31 -202 5 -30 9 -33 40 -33 19 0 35 3 35 6 0 16 51
335 59 369 7 29 9 -15 10 -167 l1 -208 40 0 40 0 0 280 0 280 -65 0 -64 0 -6
-32 c-3 -18 -14 -91 -25 -162 -10 -70 -21 -131 -24 -133 -3 -3 -7 5 -10 18 -6
24 -46 292 -46 303 0 3 -29 6 -65 6 l-65 0 0 -280z"/>
<path d="M2510 827 c0 -2 -27 -127 -60 -277 -33 -150 -60 -275 -60 -277 0 -2
23 -3 50 -3 45 0 50 2 50 23 1 60 8 67 75 67 l63 0 6 -45 7 -45 50 0 c43 0 50
3 45 18 -2 9 -30 135 -62 280 l-58 262 -53 0 c-29 0 -53 -1 -53 -3z m75 -233
c22 -115 22 -114 -26 -114 -34 0 -39 3 -35 18 3 9 10 49 16 87 20 122 23 123
45 9z"/>
<path d="M2780 551 l0 -281 84 0 c45 0 97 5 115 11 71 25 107 135 98 300 -6
116 -25 185 -63 220 -23 22 -36 24 -130 27 l-104 4 0 -281z m184 126 c18 -24
21 -42 20 -125 0 -125 -17 -162 -76 -162 l-28 0 0 161 0 160 32 -3 c20 -2 38
-13 52 -31z"/>
<path d="M3156 563 c-33 -148 -61 -274 -64 -280 -3 -9 10 -13 46 -13 l51 0 7
45 6 45 63 0 c67 0 74 -7 75 -67 0 -21 5 -23 50 -23 28 0 50 4 50 9 0 8 -96
448 -115 529 -5 19 -12 22 -58 22 l-53 0 -58 -267z m134 23 c6 -44 14 -86 17
-93 4 -9 -6 -13 -36 -13 -48 0 -48 -1 -26 113 8 43 15 82 15 85 0 3 4 2 9 -3
4 -6 14 -46 21 -89z"/>
<path d="M3640 551 l0 -281 50 0 50 0 0 115 0 115 60 0 60 0 0 -115 0 -115 45
0 45 0 0 280 0 280 -45 0 -44 0 -3 -97 -3 -98 -59 0 -58 0 -2 95 -1 95 -47 3
-48 3 0 -280z"/>
<path d="M4116 813 c-9 -30 -116 -520 -116 -532 0 -6 19 -11 45 -11 47 0 48 1
57 65 3 18 11 20 68 20 l65 0 6 -38 c3 -20 8 -40 11 -43 3 -3 26 -4 50 -2 l44
3 -60 277 -61 278 -52 0 c-41 0 -53 -4 -57 -17z m93 -320 c1 -9 -14 -13 -40
-13 -39 0 -40 1 -35 28 3 15 10 56 17 92 6 36 14 69 17 75 5 8 39 -142 41
-182z"/>
<path d="M4390 549 l0 -281 99 4 c94 3 101 5 130 32 40 38 61 102 68 206 6 97
-6 177 -38 245 -29 61 -61 75 -174 75 l-85 0 0 -281z m171 142 c23 -18 24 -25
24 -141 0 -117 -1 -123 -24 -141 -14 -11 -35 -19 -48 -17 l-24 3 0 153 c0 83
1 154 1 157 0 13 50 3 71 -14z"/>
<path d="M4820 827 c0 -2 -11 -55 -25 -118 -14 -63 -39 -177 -56 -254 -16 -77
-32 -150 -36 -162 -5 -22 -2 -23 46 -23 46 0 51 2 51 23 1 60 8 67 75 67 l63
0 6 -45 7 -45 50 0 c46 0 49 2 44 22 -8 38 -103 470 -110 506 -6 31 -8 32 -61
32 -30 0 -54 -2 -54 -3z m75 -233 c22 -115 22 -114 -26 -114 -34 0 -39 3 -35
18 3 9 10 49 16 87 20 122 23 123 45 9z"/>
<path d="M5640 550 l0 -280 45 0 45 0 0 115 c0 94 3 115 14 115 23 0 41 -33
72 -135 l29 -95 53 0 c28 0 52 4 52 8 0 30 -63 199 -82 219 -17 20 -20 27 -9
31 88 31 92 259 5 292 -14 6 -70 10 -125 10 l-99 0 0 -280z m174 164 c11 -4
16 -19 16 -50 0 -49 -17 -64 -69 -64 l-31 0 0 60 0 60 34 0 c19 0 41 -3 50 -6z"/>
<path d="M6089 828 c0 -2 -29 -127 -63 -278 l-62 -275 44 -3 c24 -2 46 -1 49
2 3 2 7 23 10 45 l6 41 63 0 c68 0 66 2 76 -65 3 -16 12 -21 51 -23 40 -3 47
0 47 15 -1 10 -27 135 -59 278 l-57 260 -52 3 c-29 2 -52 2 -53 0z m71 -238
c6 -36 14 -75 17 -87 5 -21 2 -23 -36 -23 -23 0 -41 3 -41 7 0 4 8 49 17 101
18 102 25 102 43 2z"/>
<path d="M6360 550 l0 -280 45 0 45 0 0 115 0 115 60 0 60 0 0 -115 0 -115 50
0 50 0 0 280 0 280 -50 0 -50 0 0 -100 0 -100 -60 0 -60 0 0 100 0 100 -45 0
-45 0 0 -280z"/>
<path d="M6792 633 c-23 -109 -51 -235 -61 -280 l-19 -83 48 0 49 0 7 45 6 45
64 0 63 0 8 -43 9 -42 53 -3 c30 -2 50 1 47 6 -3 5 -30 123 -61 263 -31 140
-58 262 -61 272 -4 13 -17 17 -57 17 l-52 0 -43 -197z m117 -38 c7 -38 15 -80
18 -92 5 -21 2 -23 -36 -23 -26 0 -41 5 -41 13 0 36 33 187 40 180 4 -4 13
-39 19 -78z"/>
<path d="M940 345 l0 -75 45 0 45 0 0 75 0 75 -45 0 -45 0 0 -75z"/>
</g>
</svg>
